<?xml version="1.0" encoding="UTF-8"?><svg xmlns="http://www.w3.org/2000/svg" xmlns:xlink="http://www.w3.org/1999/xlink" width="375pt" zoomAndPan="magnify" viewBox="0 0 375 374.999991" height="374.999991pt" preserveAspectRatio="xMidYMid meet" version="1.2"><g xml:id="surface1" id="surface1"><rect x="0" width="375" y="0" height="374.999991" style="fill:rgb(100%,100%,100%);fill-opacity:1;stroke:none;"/><rect x="0" width="375" y="0" height="374.999991" style="fill:rgb(100%,100%,100%);fill-opacity:1;stroke:none;"/><rect x="0" width="375" y="0" height="374.999991" style="fill:rgb(100%,100%,100%);fill-opacity:1;stroke:none;"/><path style=" stroke:none;fill-rule:nonzero;fill:rgb(73.329163%,86.669922%,96.078491%);fill-opacity:1;" d="M 113.957031 264.933594 C 112.355469 264.933594 110.734375 264.441406 109.351562 263.410156 C 105.925781 260.863281 105.210938 256.023438 107.761719 252.597656 C 111.578125 247.464844 117.394531 240.082031 124.605469 232.277344 C 120.828125 223.28125 119.988281 212.585938 124.15625 201.589844 C 133.25 177.605469 157.511719 174.40625 175.230469 172.078125 L 178.375 171.660156 C 177.296875 159.359375 177.851562 147.664062 184.128906 138.785156 C 199.460938 117.085938 219.359375 116.414062 232.875 123.027344 C 236.507812 124.808594 239.785156 127.105469 242.640625 129.800781 C 247.308594 124.4375 251.613281 119.0625 255.453125 114.015625 C 258.035156 110.617188 262.890625 109.957031 266.292969 112.53125 C 269.699219 115.109375 270.359375 119.960938 267.773438 123.355469 C 263.089844 129.523438 257.726562 136.148438 251.839844 142.710938 C 256.003906 151.828125 256.964844 162.488281 253.863281 172.65625 C 245.351562 200.570312 216.046875 206.53125 197.984375 208.460938 C 198.320312 220.367188 196.59375 231.90625 189.515625 241.128906 C 177.214844 257.144531 158.761719 261.652344 142.476562 252.59375 C 139.246094 250.789062 136.175781 248.421875 133.425781 245.605469 C 128.640625 250.949219 124.167969 256.457031 120.175781 261.820312 C 118.65625 263.855469 116.324219 264.933594 113.957031 264.933594 Z M 144.128906 234.480469 C 145.894531 236.347656 147.894531 237.90625 150 239.082031 C 154.550781 241.601562 166.296875 245.949219 177.238281 231.710938 C 181.449219 226.222656 182.691406 218.613281 182.5625 210.109375 C 170.214844 212.878906 156.605469 222.511719 144.128906 234.480469 Z M 180.25 186.996094 L 177.246094 187.390625 C 157.425781 190.003906 144.03125 192.78125 138.613281 207.0625 C 136.945312 211.464844 136.546875 215.796875 137.082031 219.820312 C 150.042969 208.015625 165.488281 197.453125 181.28125 194.605469 C 180.960938 192.074219 180.601562 189.535156 180.25 187.007812 Z M 195.460938 184.070312 L 195.570312 184.871094 C 195.945312 187.558594 196.328125 190.296875 196.675781 193.054688 C 212.09375 191.425781 233.300781 187.035156 239.058594 168.148438 C 240.445312 163.605469 240.570312 159.222656 239.785156 155.21875 C 226.585938 167.910156 211.640625 178.921875 196.238281 183.832031 Z M 217.277344 134.777344 C 209.929688 134.777344 202.757812 139.207031 196.757812 147.695312 C 193.46875 152.351562 193.011719 159.886719 193.625 168.394531 C 207.003906 163.535156 220.285156 153.046875 232.09375 141.160156 C 230.25 139.394531 228.203125 137.949219 226.070312 136.90625 C 223.148438 135.476562 220.203125 134.777344 217.277344 134.777344 Z M 217.277344 134.777344 "/><path style=" stroke:none;fill-rule:nonzero;fill:rgb(73.329163%,86.669922%,96.078491%);fill-opacity:1;" d="M 142.949219 245.59375 C 145.332031 242.550781 148.136719 240.570312 150.179688 239.175781 L 150 239.082031 C 147.894531 237.90625 145.902344 236.347656 144.128906 234.480469 C 144.128906 234.480469 136.6875 241.59375 133.421875 245.59375 C 135.289062 247.515625 137.34375 249.132812 139.464844 250.597656 C 140.484375 248.960938 141.652344 247.253906 142.949219 245.59375 Z M 178.46875 211.292969 C 179.84375 210.832031 181.214844 210.414062 182.5625 210.113281 C 182.5625 210.113281 182.230469 203.074219 181.28125 194.605469 C 179.65625 194.898438 178.039062 195.324219 176.429688 195.769531 C 176.792969 198.089844 177.347656 201.355469 178.214844 205.949219 C 178.582031 207.898438 178.585938 209.644531 178.46875 211.292969 Z M 224.902344 148 C 228.28125 149.890625 232.613281 153.238281 235.335938 159.355469 C 236.839844 157.996094 238.328125 156.621094 239.789062 155.21875 C 239.789062 155.21875 238.386719 147.496094 232.09375 141.160156 C 229.753906 143.515625 227.347656 145.785156 224.902344 148 Z M 195.570312 184.871094 L 195.460938 184.070312 C 186.886719 186.269531 180.25 187.003906 180.25 187.003906 L 180.25 187.007812 L 180.882812 191.683594 C 185.835938 190.742188 191.578125 189.894531 196.179688 189.375 C 195.972656 187.871094 195.777344 186.351562 195.570312 184.871094 Z M 199.886719 192.679688 C 198.792969 192.820312 197.722656 192.949219 196.679688 193.054688 C 197.496094 200.359375 197.980469 208.453125 197.980469 208.453125 C 199.21875 208.320312 200.511719 208.164062 201.839844 207.988281 C 201.53125 203.027344 200.515625 196.320312 199.886719 192.679688 Z M 199.886719 192.679688 "/><path style=" stroke:none;fill-rule:nonzero;fill:rgb(73.329163%,86.669922%,96.078491%);fill-opacity:1;" d="M 109.773438 257.382812 C 108.710938 257.382812 107.75 256.660156 107.488281 255.578125 C 107.1875 254.320312 107.96875 253.046875 109.234375 252.753906 C 115.078125 251.359375 122.320312 252.664062 122.625 252.730469 C 123.902344 252.964844 124.742188 254.191406 124.507812 255.460938 C 124.273438 256.734375 123.0625 257.585938 121.765625 257.339844 C 121.699219 257.332031 115.183594 256.164062 110.316406 257.316406 C 110.140625 257.363281 109.957031 257.382812 109.773438 257.382812 Z M 117.855469 246.972656 C 116.792969 246.972656 115.828125 246.25 115.570312 245.167969 C 115.269531 243.90625 116.050781 242.636719 117.316406 242.335938 C 123.164062 240.9375 130.402344 242.25 130.710938 242.3125 C 131.984375 242.546875 132.828125 243.773438 132.59375 245.046875 C 132.359375 246.320312 131.144531 247.171875 129.851562 246.925781 C 129.785156 246.914062 123.269531 245.746094 118.402344 246.902344 C 118.222656 246.953125 118.039062 246.972656 117.855469 246.972656 Z M 139.597656 236.582031 C 139.402344 236.582031 139.207031 236.558594 139.007812 236.507812 C 138.945312 236.492188 132.546875 234.875 127.585938 235.6875 C 126.308594 235.921875 125.09375 235.027344 124.882812 233.753906 C 124.671875 232.476562 125.535156 231.265625 126.820312 231.054688 C 132.753906 230.058594 139.878906 231.882812 140.179688 231.957031 C 141.433594 232.28125 142.191406 233.5625 141.867188 234.816406 C 141.59375 235.882812 140.640625 236.582031 139.597656 236.582031 Z M 150.199219 227.878906 C 149.894531 227.878906 149.589844 227.820312 149.292969 227.699219 C 149.230469 227.671875 143.085938 224.921875 138.113281 225.253906 C 136.789062 225.339844 135.742188 224.253906 135.714844 222.957031 C 135.691406 221.664062 136.71875 220.585938 138.015625 220.558594 C 144.046875 220.550781 150.828125 223.242188 151.109375 223.367188 C 152.308594 223.863281 152.871094 225.238281 152.375 226.433594 C 151.992188 227.339844 151.117188 227.878906 150.199219 227.878906 Z M 160.636719 219.667969 C 160.210938 219.667969 159.78125 219.554688 159.390625 219.308594 C 159.335938 219.273438 153.714844 215.792969 148.753906 215.082031 C 147.472656 214.898438 146.578125 213.707031 146.761719 212.425781 C 146.949219 211.148438 148.132812 210.28125 149.421875 210.433594 C 155.371094 211.289062 161.621094 215.167969 161.882812 215.332031 C 162.984375 216.015625 163.316406 217.46875 162.625 218.566406 C 162.183594 219.277344 161.417969 219.667969 160.636719 219.667969 Z M 172.398438 213.214844 C 171.867188 213.214844 171.332031 213.035156 170.894531 212.667969 C 170.84375 212.621094 165.753906 208.40625 160.9375 207.023438 C 159.691406 206.667969 158.972656 205.359375 159.332031 204.121094 C 159.6875 202.867188 160.984375 202.148438 162.242188 202.511719 C 168.019531 204.171875 173.679688 208.871094 173.917969 209.066406 C 174.910156 209.898438 175.042969 211.378906 174.210938 212.367188 C 173.738281 212.921875 173.070312 213.214844 172.398438 213.214844 Z M 213.324219 205.367188 C 212.652344 205.367188 211.988281 205.078125 211.523438 204.523438 C 211.476562 204.472656 207.210938 199.429688 202.714844 197.21875 C 201.550781 196.648438 201.070312 195.242188 201.644531 194.074219 C 202.21875 192.914062 203.621094 192.433594 204.789062 193.003906 C 210.183594 195.652344 214.921875 201.269531 215.125 201.503906 C 215.957031 202.5 215.820312 203.980469 214.835938 204.8125 C 214.390625 205.1875 213.855469 205.367188 213.324219 205.367188 Z M 227.355469 200.351562 C 226.847656 200.351562 226.332031 200.1875 225.898438 199.847656 C 225.847656 199.804688 220.628906 195.742188 215.777344 194.503906 C 214.519531 194.183594 213.761719 192.902344 214.085938 191.648438 C 214.40625 190.390625 215.671875 189.625 216.945312 189.953125 C 222.769531 191.4375 228.570312 195.964844 228.808594 196.15625 C 229.828125 196.960938 230.003906 198.429688 229.199219 199.449219 C 228.738281 200.039062 228.046875 200.351562 227.355469 200.351562 Z M 241.144531 190.59375 C 240.898438 190.59375 240.65625 190.558594 240.40625 190.476562 C 240.34375 190.460938 234.066406 188.421875 229.066406 188.890625 C 227.882812 189.027344 226.628906 188.074219 226.5 186.78125 C 226.378906 185.492188 227.324219 184.339844 228.617188 184.21875 C 234.578125 183.617188 241.585938 185.921875 241.882812 186.019531 C 243.113281 186.429688 243.78125 187.757812 243.371094 188.984375 C 243.046875 189.976562 242.132812 190.59375 241.144531 190.59375 Z M 237.625 180.113281 C 236.738281 180.113281 235.890625 179.609375 235.488281 178.75 C 234.949219 177.578125 235.457031 176.183594 236.636719 175.632812 C 242.089844 173.105469 249.449219 172.949219 249.757812 172.945312 C 250.957031 173.019531 252.125 173.957031 252.148438 175.253906 C 252.171875 176.546875 251.140625 177.613281 249.839844 177.644531 C 249.777344 177.644531 243.15625 177.789062 238.609375 179.890625 C 238.292969 180.042969 237.953125 180.113281 237.625 180.113281 Z M 242.410156 167.53125 C 241.859375 167.53125 241.308594 167.339844 240.863281 166.949219 C 239.886719 166.09375 239.785156 164.609375 240.636719 163.632812 C 244.601562 159.105469 251.246094 155.976562 251.527344 155.847656 C 252.695312 155.304688 254.101562 155.804688 254.648438 156.984375 C 255.195312 158.15625 254.691406 159.550781 253.515625 160.105469 C 253.457031 160.132812 247.476562 162.957031 244.179688 166.726562 C 243.710938 167.257812 243.0625 167.53125 242.410156 167.53125 Z M 242.179688 154.097656 C 241.945312 154.097656 241.707031 154.066406 241.476562 153.992188 C 240.238281 153.601562 239.550781 152.285156 239.9375 151.050781 C 241.738281 145.316406 246.574219 139.78125 246.777344 139.550781 C 247.640625 138.578125 249.113281 138.480469 250.09375 139.339844 C 251.066406 140.195312 251.167969 141.675781 250.3125 142.65625 C 250.265625 142.703125 245.921875 147.6875 244.425781 152.460938 C 244.105469 153.457031 243.179688 154.097656 242.179688 154.097656 Z M 236.160156 143.316406 C 235.039062 143.316406 234.042969 142.507812 233.847656 141.359375 C 232.847656 135.429688 234.640625 128.300781 234.71875 128 C 235.035156 126.746094 236.308594 125.972656 237.570312 126.304688 C 238.832031 126.625 239.59375 127.902344 239.269531 129.160156 C 239.253906 129.226562 237.648438 135.636719 238.484375 140.574219 C 238.699219 141.851562 237.835938 143.0625 236.558594 143.285156 C 236.429688 143.308594 236.292969 143.316406 236.160156 143.316406 Z M 225.492188 135.652344 C 224.824219 135.652344 224.164062 135.371094 223.699219 134.820312 C 219.808594 130.238281 217.703125 123.195312 217.613281 122.902344 C 217.246094 121.65625 217.957031 120.355469 219.199219 119.984375 C 220.441406 119.628906 221.75 120.328125 222.121094 121.570312 C 222.140625 121.632812 224.042969 127.96875 227.28125 131.78125 C 228.125 132.769531 228 134.253906 227.007812 135.09375 C 226.566406 135.46875 226.027344 135.652344 225.492188 135.652344 Z M 210.980469 135.019531 C 210.84375 135.019531 210.707031 135.007812 210.570312 134.984375 C 204.644531 133.957031 198.523438 129.894531 198.257812 129.71875 C 197.175781 129 196.890625 127.546875 197.609375 126.46875 C 198.324219 125.394531 199.785156 125.09375 200.867188 125.816406 C 200.925781 125.855469 206.441406 129.5 211.375 130.359375 C 212.648438 130.578125 213.507812 131.796875 213.28125 133.074219 C 213.089844 134.214844 212.097656 135.019531 210.980469 135.019531 Z M 190.191406 144.847656 C 187.636719 144.847656 185.75 144.632812 185.597656 144.613281 C 184.3125 144.457031 183.390625 143.289062 183.546875 142 C 183.699219 140.714844 184.886719 139.785156 186.160156 139.949219 C 186.214844 139.953125 192.800781 140.710938 197.582031 139.25 C 198.828125 138.863281 200.140625 139.5625 200.519531 140.808594 C 200.894531 142.046875 200.199219 143.359375 198.960938 143.742188 C 196.066406 144.621094 192.777344 144.847656 190.191406 144.847656 Z M 180.523438 163.273438 C 179.550781 163.273438 178.640625 162.664062 178.304688 161.695312 C 177.878906 160.46875 178.523438 159.132812 179.75 158.707031 C 179.8125 158.683594 186.054688 156.484375 189.71875 153.074219 C 190.667969 152.1875 192.152344 152.238281 193.039062 153.1875 C 193.925781 154.136719 193.878906 155.625 192.929688 156.507812 C 188.527344 160.613281 181.589844 163.046875 181.292969 163.148438 C 181.035156 163.230469 180.777344 163.273438 180.523438 163.273438 Z M 184.503906 203.410156 C 183.675781 203.410156 182.878906 202.976562 182.445312 202.203125 C 181.816406 201.074219 182.222656 199.640625 183.355469 199.007812 C 183.414062 198.972656 189.1875 195.742188 192.203125 191.75 C 192.984375 190.714844 194.460938 190.511719 195.5 191.289062 C 196.535156 192.074219 196.742188 193.542969 195.957031 194.582031 C 192.332031 199.378906 185.910156 202.964844 185.640625 203.117188 C 185.28125 203.3125 184.890625 203.410156 184.503906 203.410156 Z M 185.058594 219.050781 C 184.230469 219.050781 183.433594 218.613281 183 217.84375 C 182.371094 216.710938 182.777344 215.28125 183.910156 214.652344 C 183.972656 214.613281 189.742188 211.382812 192.761719 207.386719 C 193.542969 206.351562 195.015625 206.148438 196.054688 206.929688 C 197.089844 207.710938 197.296875 209.179688 196.511719 210.21875 C 192.886719 215.011719 186.46875 218.601562 186.195312 218.75 C 185.839844 218.957031 185.445312 219.050781 185.058594 219.050781 Z M 181.753906 232.859375 C 180.636719 232.859375 179.644531 232.054688 179.441406 230.917969 C 179.214844 229.644531 180.066406 228.425781 181.34375 228.199219 C 181.410156 228.1875 187.921875 227.011719 192.085938 224.226562 C 193.164062 223.5 194.625 223.789062 195.34375 224.871094 C 196.066406 225.945312 195.78125 227.40625 194.699219 228.125 C 189.703125 231.46875 182.464844 232.769531 182.160156 232.820312 C 182.023438 232.847656 181.890625 232.859375 181.753906 232.859375 Z M 182.523438 244.886719 C 177.238281 244.886719 171.953125 243.257812 171.699219 243.179688 C 170.457031 242.796875 169.773438 241.480469 170.15625 240.242188 C 170.542969 239 171.855469 238.292969 173.09375 238.695312 C 173.15625 238.71875 179.488281 240.664062 184.460938 240.085938 C 185.734375 239.9375 186.914062 240.867188 187.0625 242.152344 C 187.210938 243.441406 186.28125 244.605469 184.992188 244.753906 C 184.1875 244.84375 183.355469 244.886719 182.523438 244.886719 Z M 171.449219 254.503906 C 171.101562 254.503906 170.753906 254.425781 170.421875 254.265625 C 165.019531 251.625 160.265625 246.007812 160.070312 245.769531 C 159.230469 244.777344 159.363281 243.300781 160.355469 242.460938 C 161.347656 241.636719 162.824219 241.753906 163.671875 242.753906 C 163.710938 242.804688 167.996094 247.851562 172.488281 250.046875 C 173.65625 250.621094 174.140625 252.023438 173.566406 253.191406 C 173.15625 254.019531 172.320312 254.503906 171.449219 254.503906 Z M 155.207031 256.234375 C 154.5 256.234375 153.796875 255.914062 153.335938 255.308594 C 149.695312 250.523438 147.964844 243.382812 147.894531 243.082031 C 147.59375 241.820312 148.375 240.554688 149.632812 240.25 C 150.90625 239.964844 152.164062 240.730469 152.46875 241.988281 C 152.480469 242.054688 154.046875 248.472656 157.078125 252.457031 C 157.863281 253.488281 157.667969 254.960938 156.632812 255.75 C 156.203125 256.078125 155.703125 256.234375 155.207031 256.234375 Z M 124.671875 225.648438 C 124.210938 225.648438 123.746094 225.519531 123.339844 225.238281 C 122.269531 224.5 122 223.035156 122.738281 221.96875 C 126.152344 217.023438 132.40625 213.152344 132.667969 212.992188 C 133.761719 212.300781 135.214844 212.660156 135.902344 213.761719 C 136.582031 214.867188 136.234375 216.3125 135.132812 216.996094 C 135.074219 217.03125 129.453125 220.515625 126.613281 224.640625 C 126.152344 225.296875 125.417969 225.648438 124.671875 225.648438 Z M 126.167969 207.078125 C 125.347656 207.078125 124.550781 206.652344 124.117188 205.886719 C 123.476562 204.761719 123.878906 203.324219 125.003906 202.683594 C 130.242188 199.726562 137.558594 198.984375 137.867188 198.949219 C 139.171875 198.855469 140.308594 199.769531 140.433594 201.058594 C 140.5625 202.347656 139.617188 203.5 138.328125 203.628906 C 138.261719 203.632812 131.679688 204.3125 127.316406 206.773438 C 126.957031 206.984375 126.5625 207.078125 126.167969 207.078125 Z M 149.351562 192.488281 C 149.074219 192.488281 148.792969 192.4375 148.515625 192.332031 C 148.453125 192.308594 142.285156 189.996094 137.253906 190.242188 C 135.929688 190.261719 134.855469 189.3125 134.789062 188.015625 C 134.722656 186.722656 135.71875 185.617188 137.015625 185.550781 C 143.027344 185.273438 149.90625 187.832031 150.191406 187.945312 C 151.40625 188.410156 152.011719 189.765625 151.550781 190.976562 C 151.1875 191.910156 150.296875 192.488281 149.351562 192.488281 Z M 165.421875 188.328125 C 164.75 188.328125 164.082031 188.039062 163.621094 187.488281 C 163.582031 187.433594 159.3125 182.382812 154.816406 180.167969 C 153.652344 179.597656 153.171875 178.191406 153.75 177.027344 C 154.324219 175.867188 155.734375 175.386719 156.894531 175.960938 C 162.289062 178.613281 167.027344 184.242188 167.226562 184.476562 C 168.0625 185.472656 167.925781 186.949219 166.933594 187.78125 C 166.492188 188.144531 165.953125 188.328125 165.421875 188.328125 Z M 185.035156 185.554688 C 184.363281 185.554688 183.695312 185.269531 183.234375 184.714844 C 183.191406 184.664062 178.925781 179.613281 174.429688 177.398438 C 173.265625 176.824219 172.785156 175.421875 173.363281 174.257812 C 173.9375 173.097656 175.34375 172.621094 176.507812 173.191406 C 181.898438 175.84375 186.636719 181.464844 186.839844 181.699219 C 187.671875 182.695312 187.535156 184.175781 186.542969 185.007812 C 186.101562 185.378906 185.566406 185.554688 185.035156 185.554688 Z M 203.75 179.851562 C 203.222656 179.851562 202.691406 179.675781 202.257812 179.320312 C 202.207031 179.277344 197.074219 175.105469 192.25 173.761719 C 191 173.414062 190.265625 172.121094 190.617188 170.871094 C 190.964844 169.621094 192.238281 168.886719 193.511719 169.234375 C 199.300781 170.847656 205.003906 175.492188 205.246094 175.6875 C 206.246094 176.511719 206.390625 177.992188 205.570312 178.992188 C 205.109375 179.558594 204.429688 179.851562 203.75 179.851562 Z M 219.328125 170.726562 C 218.957031 170.726562 218.574219 170.636719 218.21875 170.441406 C 218.164062 170.410156 212.324219 167.304688 207.335938 166.921875 C 206.042969 166.820312 205.074219 165.691406 205.171875 164.398438 C 205.273438 163.101562 206.53125 162.136719 207.695312 162.238281 C 213.6875 162.699219 220.175781 166.160156 220.453125 166.308594 C 221.59375 166.925781 222.023438 168.347656 221.40625 169.488281 C 220.976562 170.277344 220.167969 170.726562 219.328125 170.726562 Z M 231.628906 160.664062 C 231.375 160.664062 231.121094 160.621094 230.867188 160.539062 C 230.804688 160.515625 224.457031 158.398438 219.550781 158.824219 C 218.25 158.917969 217.113281 157.972656 217.003906 156.683594 C 216.898438 155.390625 217.855469 154.253906 219.144531 154.140625 C 225.144531 153.628906 232.105469 155.988281 232.390625 156.089844 C 233.625 156.507812 234.273438 157.847656 233.855469 159.074219 C 233.519531 160.054688 232.601562 160.664062 231.628906 160.664062 Z M 258.3125 133.132812 C 258.121094 133.132812 257.921875 133.109375 257.726562 133.058594 C 257.660156 133.046875 251.25 131.421875 246.300781 132.234375 C 245.042969 132.453125 243.816406 131.582031 243.601562 130.296875 C 243.390625 129.015625 244.261719 127.808594 245.539062 127.597656 C 251.46875 126.625 258.605469 128.429688 258.898438 128.507812 C 260.160156 128.832031 260.910156 130.109375 260.585938 131.367188 C 260.316406 132.429688 259.359375 133.132812 258.3125 133.132812 Z M 254.394531 121.902344 C 253.367188 121.902344 252.421875 121.21875 252.136719 120.183594 C 251.789062 118.933594 252.515625 117.636719 253.765625 117.289062 C 259.5625 115.667969 266.839844 116.710938 267.15625 116.753906 C 268.4375 116.941406 269.328125 118.128906 269.136719 119.410156 C 268.949219 120.6875 267.773438 121.59375 266.476562 121.398438 C 266.410156 121.390625 259.847656 120.46875 255.035156 121.808594 C 254.820312 121.878906 254.601562 121.902344 254.394531 121.902344 Z M 254.394531 121.902344 "/></g></svg>