<?xml version="1.0" encoding="UTF-8"?><svg xmlns="http://www.w3.org/2000/svg" xmlns:xlink="http://www.w3.org/1999/xlink" width="375pt" zoomAndPan="magnify" viewBox="0 0 375 374.999991" height="374.999991pt" preserveAspectRatio="xMidYMid meet" version="1.2"><defs><g/><clipPath xml:id="clip1" id="clip1"><path d="M 134.164062 137.265625 L 240.664062 137.265625 L 240.664062 237.765625 L 134.164062 237.765625 Z M 134.164062 137.265625 "/></clipPath><clipPath xml:id="clip2" id="clip2"><path d="M 135 141 L 240.664062 141 L 240.664062 233 L 135 233 Z M 135 141 "/></clipPath></defs><g xml:id="surface1" id="surface1"><rect x="0" width="375" y="0" height="374.999991" style="fill:rgb(100%,100%,100%);fill-opacity:1;stroke:none;"/><rect x="0" width="375" y="0" height="374.999991" style="fill:rgb(100%,100%,100%);fill-opacity:1;stroke:none;"/><rect x="0" width="375" y="0" height="374.999991" style="fill:rgb(100%,100%,100%);fill-opacity:1;stroke:none;"/><g clip-rule="nonzero" clip-path="url(#clip1)"><path style=" stroke:none;fill-rule:nonzero;fill:rgb(73.329163%,86.669922%,96.078491%);fill-opacity:1;" d="M 139.914062 237.65625 C 138.878906 237.65625 137.832031 237.339844 136.941406 236.667969 C 134.726562 235.023438 134.265625 231.886719 135.914062 229.671875 C 138.378906 226.347656 142.132812 221.570312 146.785156 216.519531 C 144.347656 210.695312 143.808594 203.773438 146.496094 196.65625 C 152.367188 181.128906 168.027344 179.058594 179.460938 177.550781 L 181.492188 177.28125 C 180.796875 169.320312 181.15625 161.75 185.207031 156.003906 C 195.101562 141.957031 207.945312 141.523438 216.667969 145.804688 C 219.015625 146.957031 221.128906 148.441406 222.972656 150.1875 C 225.984375 146.714844 228.765625 143.238281 231.242188 139.96875 C 232.910156 137.769531 236.042969 137.34375 238.238281 139.007812 C 240.4375 140.679688 240.863281 143.820312 239.195312 146.015625 C 236.171875 150.007812 232.707031 154.296875 228.910156 158.542969 C 231.597656 164.445312 232.21875 171.34375 230.21875 177.925781 C 224.722656 195.996094 205.808594 199.851562 194.148438 201.101562 C 194.367188 208.808594 193.25 216.277344 188.683594 222.25 C 180.742188 232.613281 168.832031 235.53125 158.324219 229.667969 C 156.234375 228.5 154.253906 226.96875 152.476562 225.144531 C 149.390625 228.605469 146.503906 232.171875 143.929688 235.640625 C 142.945312 236.957031 141.441406 237.65625 139.914062 237.65625 Z M 159.386719 217.945312 C 160.527344 219.152344 161.816406 220.164062 163.175781 220.921875 C 166.113281 222.554688 173.695312 225.367188 180.757812 216.152344 C 183.476562 212.601562 184.277344 207.675781 184.195312 202.167969 C 176.222656 203.964844 167.441406 210.199219 159.386719 217.945312 Z M 182.703125 187.210938 L 180.761719 187.464844 C 167.972656 189.15625 159.324219 190.953125 155.828125 200.195312 C 154.75 203.046875 154.492188 205.851562 154.839844 208.457031 C 163.203125 200.8125 173.175781 193.976562 183.367188 192.136719 C 183.160156 190.496094 182.929688 188.851562 182.703125 187.214844 Z M 192.519531 185.316406 L 192.589844 185.832031 C 192.832031 187.570312 193.078125 189.34375 193.304688 191.132812 C 203.253906 190.078125 216.941406 187.234375 220.660156 175.007812 C 221.554688 172.070312 221.636719 169.230469 221.128906 166.640625 C 212.609375 174.855469 202.964844 181.980469 193.019531 185.160156 Z M 206.601562 153.410156 C 201.859375 153.410156 197.230469 156.277344 193.359375 161.769531 C 191.234375 164.785156 190.941406 169.660156 191.335938 175.167969 C 199.96875 172.023438 208.542969 165.234375 216.167969 157.539062 C 214.972656 156.398438 213.652344 155.460938 212.277344 154.785156 C 210.390625 153.863281 208.488281 153.410156 206.601562 153.410156 Z M 206.601562 153.410156 "/></g><path style=" stroke:none;fill-rule:nonzero;fill:rgb(73.329163%,86.669922%,96.078491%);fill-opacity:1;" d="M 158.625 225.140625 C 160.164062 223.167969 161.976562 221.886719 163.292969 220.984375 L 163.175781 220.921875 C 161.816406 220.164062 160.53125 219.152344 159.386719 217.945312 C 159.386719 217.945312 154.585938 222.550781 152.476562 225.140625 C 153.683594 226.382812 155.007812 227.429688 156.378906 228.375 C 157.035156 227.320312 157.789062 226.210938 158.625 225.140625 Z M 181.550781 202.9375 C 182.441406 202.636719 183.324219 202.367188 184.195312 202.171875 C 184.195312 202.171875 183.980469 197.617188 183.367188 192.136719 C 182.320312 192.324219 181.277344 192.601562 180.234375 192.890625 C 180.472656 194.390625 180.828125 196.503906 181.386719 199.476562 C 181.625 200.738281 181.628906 201.867188 181.550781 202.9375 Z M 211.523438 161.964844 C 213.707031 163.191406 216.5 165.359375 218.257812 169.316406 C 219.226562 168.4375 220.1875 167.546875 221.132812 166.640625 C 221.132812 166.640625 220.226562 161.640625 216.167969 157.539062 C 214.65625 159.0625 213.101562 160.535156 211.523438 161.964844 Z M 192.589844 185.832031 L 192.519531 185.316406 C 186.984375 186.738281 182.703125 187.214844 182.703125 187.214844 L 183.113281 190.242188 C 186.304688 189.632812 190.015625 189.085938 192.984375 188.75 C 192.851562 187.777344 192.722656 186.789062 192.589844 185.832031 Z M 195.375 190.886719 C 194.671875 190.980469 193.980469 191.0625 193.304688 191.132812 C 193.835938 195.859375 194.148438 201.097656 194.148438 201.097656 C 194.945312 201.011719 195.78125 200.910156 196.636719 200.796875 C 196.4375 197.585938 195.78125 193.246094 195.375 190.886719 Z M 195.375 190.886719 "/><g clip-rule="nonzero" clip-path="url(#clip2)"><path style=" stroke:none;fill-rule:nonzero;fill:rgb(73.329163%,86.669922%,96.078491%);fill-opacity:1;" d="M 137.214844 232.769531 C 136.527344 232.769531 135.90625 232.300781 135.738281 231.601562 C 135.542969 230.789062 136.046875 229.964844 136.863281 229.773438 C 140.636719 228.871094 145.3125 229.714844 145.507812 229.757812 C 146.332031 229.910156 146.875 230.703125 146.722656 231.527344 C 146.570312 232.351562 145.792969 232.898438 144.953125 232.742188 C 144.910156 232.734375 140.707031 231.980469 137.5625 232.726562 C 137.449219 232.757812 137.332031 232.769531 137.214844 232.769531 Z M 142.429688 226.03125 C 141.742188 226.03125 141.121094 225.5625 140.953125 224.863281 C 140.761719 224.046875 141.265625 223.222656 142.082031 223.03125 C 145.855469 222.125 150.527344 222.976562 150.726562 223.015625 C 151.550781 223.167969 152.09375 223.960938 151.941406 224.785156 C 151.789062 225.609375 151.007812 226.160156 150.171875 226 C 150.128906 225.992188 145.925781 225.238281 142.78125 225.984375 C 142.664062 226.019531 142.546875 226.03125 142.429688 226.03125 Z M 156.460938 219.304688 C 156.339844 219.304688 156.210938 219.289062 156.082031 219.257812 C 156.039062 219.246094 151.910156 218.199219 148.710938 218.726562 C 147.882812 218.878906 147.101562 218.300781 146.964844 217.476562 C 146.828125 216.648438 147.386719 215.863281 148.214844 215.726562 C 152.042969 215.082031 156.644531 216.261719 156.839844 216.3125 C 157.648438 216.519531 158.136719 217.351562 157.929688 218.164062 C 157.75 218.851562 157.136719 219.304688 156.460938 219.304688 Z M 163.304688 213.671875 C 163.109375 213.671875 162.914062 213.632812 162.722656 213.554688 C 162.679688 213.539062 158.714844 211.757812 155.503906 211.972656 C 154.652344 212.027344 153.972656 211.324219 153.957031 210.488281 C 153.941406 209.648438 154.605469 208.953125 155.441406 208.933594 C 159.335938 208.925781 163.710938 210.667969 163.894531 210.75 C 164.667969 211.074219 165.03125 211.960938 164.710938 212.738281 C 164.464844 213.324219 163.898438 213.671875 163.304688 213.671875 Z M 170.042969 208.355469 C 169.765625 208.355469 169.492188 208.28125 169.238281 208.125 C 169.203125 208.101562 165.574219 205.847656 162.371094 205.390625 C 161.542969 205.269531 160.96875 204.5 161.085938 203.667969 C 161.207031 202.839844 161.972656 202.28125 162.804688 202.378906 C 166.644531 202.933594 170.675781 205.445312 170.847656 205.550781 C 171.558594 205.992188 171.773438 206.933594 171.328125 207.644531 C 171.042969 208.105469 170.546875 208.355469 170.042969 208.355469 Z M 177.636719 204.179688 C 177.292969 204.179688 176.945312 204.0625 176.664062 203.828125 C 176.628906 203.796875 173.34375 201.066406 170.238281 200.171875 C 169.433594 199.941406 168.96875 199.097656 169.199219 198.292969 C 169.429688 197.480469 170.269531 197.015625 171.078125 197.25 C 174.808594 198.328125 178.460938 201.367188 178.613281 201.496094 C 179.253906 202.03125 179.339844 202.992188 178.804688 203.632812 C 178.5 203.992188 178.070312 204.179688 177.636719 204.179688 Z M 204.050781 199.097656 C 203.617188 199.097656 203.1875 198.914062 202.886719 198.554688 C 202.859375 198.523438 200.101562 195.257812 197.203125 193.824219 C 196.449219 193.457031 196.140625 192.546875 196.511719 191.792969 C 196.878906 191.039062 197.789062 190.726562 198.539062 191.097656 C 202.023438 192.8125 205.082031 196.449219 205.210938 196.601562 C 205.75 197.246094 205.660156 198.203125 205.023438 198.742188 C 204.738281 198.984375 204.394531 199.097656 204.050781 199.097656 Z M 213.109375 195.851562 C 212.78125 195.851562 212.445312 195.746094 212.167969 195.527344 C 212.132812 195.5 208.765625 192.871094 205.632812 192.066406 C 204.820312 191.863281 204.332031 191.03125 204.542969 190.21875 C 204.75 189.40625 205.566406 188.910156 206.386719 189.121094 C 210.144531 190.082031 213.890625 193.011719 214.046875 193.136719 C 214.703125 193.65625 214.816406 194.609375 214.296875 195.269531 C 214 195.652344 213.554688 195.851562 213.109375 195.851562 Z M 222.007812 189.539062 C 221.847656 189.539062 221.691406 189.515625 221.53125 189.460938 C 221.492188 189.449219 217.4375 188.132812 214.210938 188.433594 C 213.449219 188.523438 212.636719 187.90625 212.554688 187.070312 C 212.476562 186.234375 213.085938 185.488281 213.921875 185.410156 C 217.769531 185.023438 222.292969 186.515625 222.484375 186.578125 C 223.277344 186.84375 223.710938 187.703125 223.445312 188.496094 C 223.234375 189.136719 222.644531 189.539062 222.007812 189.539062 Z M 219.734375 182.753906 C 219.164062 182.753906 218.613281 182.429688 218.355469 181.871094 C 218.007812 181.113281 218.335938 180.210938 219.097656 179.855469 C 222.617188 178.21875 227.367188 178.117188 227.566406 178.113281 C 228.339844 178.164062 229.09375 178.769531 229.109375 179.605469 C 229.125 180.445312 228.457031 181.136719 227.621094 181.15625 C 227.578125 181.15625 223.304688 181.25 220.371094 182.609375 C 220.164062 182.707031 219.945312 182.753906 219.734375 182.753906 Z M 222.824219 174.609375 C 222.46875 174.609375 222.113281 174.484375 221.824219 174.234375 C 221.195312 173.679688 221.128906 172.71875 221.679688 172.085938 C 224.238281 169.15625 228.527344 167.132812 228.710938 167.046875 C 229.460938 166.695312 230.367188 167.019531 230.722656 167.78125 C 231.074219 168.542969 230.75 169.445312 229.992188 169.804688 C 229.953125 169.820312 226.09375 171.648438 223.96875 174.089844 C 223.664062 174.433594 223.246094 174.609375 222.824219 174.609375 Z M 222.675781 165.914062 C 222.523438 165.914062 222.371094 165.894531 222.222656 165.84375 C 221.421875 165.59375 220.976562 164.742188 221.226562 163.941406 C 222.390625 160.230469 225.511719 156.648438 225.640625 156.496094 C 226.199219 155.867188 227.148438 155.804688 227.785156 156.359375 C 228.410156 156.914062 228.476562 157.875 227.921875 158.507812 C 227.894531 158.539062 225.089844 161.765625 224.125 164.855469 C 223.917969 165.5 223.320312 165.914062 222.675781 165.914062 Z M 218.789062 158.9375 C 218.066406 158.9375 217.421875 158.414062 217.296875 157.667969 C 216.652344 153.832031 217.808594 149.21875 217.859375 149.023438 C 218.0625 148.210938 218.882812 147.710938 219.699219 147.925781 C 220.515625 148.132812 221.003906 148.957031 220.796875 149.773438 C 220.789062 149.816406 219.75 153.964844 220.289062 157.160156 C 220.429688 157.988281 219.871094 158.773438 219.046875 158.914062 C 218.964844 158.929688 218.875 158.9375 218.789062 158.9375 Z M 211.902344 153.976562 C 211.472656 153.976562 211.046875 153.792969 210.746094 153.4375 C 208.234375 150.46875 206.875 145.914062 206.816406 145.722656 C 206.582031 144.914062 207.039062 144.074219 207.84375 143.832031 C 208.644531 143.601562 209.488281 144.054688 209.726562 144.859375 C 209.738281 144.902344 210.96875 149 213.058594 151.46875 C 213.601562 152.109375 213.523438 153.070312 212.882812 153.613281 C 212.597656 153.855469 212.25 153.976562 211.902344 153.976562 Z M 202.535156 153.5625 C 202.449219 153.5625 202.359375 153.558594 202.273438 153.542969 C 198.445312 152.878906 194.496094 150.246094 194.324219 150.136719 C 193.628906 149.671875 193.441406 148.726562 193.90625 148.03125 C 194.367188 147.335938 195.3125 147.140625 196.011719 147.609375 C 196.046875 147.632812 199.609375 149.992188 202.792969 150.546875 C 203.613281 150.691406 204.167969 151.480469 204.023438 152.304688 C 203.898438 153.042969 203.257812 153.5625 202.535156 153.5625 Z M 189.121094 159.925781 C 187.46875 159.925781 186.253906 159.785156 186.15625 159.773438 C 185.324219 159.675781 184.730469 158.917969 184.828125 158.085938 C 184.929688 157.25 185.695312 156.648438 186.515625 156.757812 C 186.550781 156.757812 190.804688 157.25 193.890625 156.304688 C 194.691406 156.054688 195.539062 156.507812 195.785156 157.3125 C 196.027344 158.113281 195.578125 158.964844 194.777344 159.210938 C 192.910156 159.78125 190.789062 159.925781 189.121094 159.925781 Z M 182.878906 171.851562 C 182.25 171.851562 181.664062 171.460938 181.445312 170.832031 C 181.171875 170.039062 181.589844 169.175781 182.378906 168.898438 C 182.417969 168.882812 186.449219 167.460938 188.8125 165.253906 C 189.425781 164.679688 190.382812 164.710938 190.957031 165.324219 C 191.527344 165.941406 191.5 166.902344 190.886719 167.476562 C 188.046875 170.132812 183.566406 171.707031 183.375 171.773438 C 183.207031 171.824219 183.042969 171.851562 182.878906 171.851562 Z M 185.449219 197.835938 C 184.914062 197.835938 184.398438 197.550781 184.117188 197.054688 C 183.710938 196.320312 183.976562 195.394531 184.707031 194.984375 C 184.742188 194.960938 188.46875 192.871094 190.417969 190.285156 C 190.921875 189.613281 191.875 189.484375 192.546875 189.988281 C 193.210938 190.496094 193.347656 191.449219 192.839844 192.121094 C 190.5 195.222656 186.355469 197.546875 186.183594 197.644531 C 185.949219 197.769531 185.695312 197.835938 185.449219 197.835938 Z M 185.804688 207.957031 C 185.273438 207.957031 184.757812 207.675781 184.476562 207.175781 C 184.070312 206.445312 184.335938 205.515625 185.066406 205.109375 C 185.105469 205.085938 188.828125 202.992188 190.777344 200.40625 C 191.28125 199.738281 192.230469 199.605469 192.902344 200.113281 C 193.570312 200.617188 193.703125 201.566406 193.199219 202.238281 C 190.859375 205.34375 186.714844 207.664062 186.539062 207.761719 C 186.308594 207.898438 186.054688 207.957031 185.804688 207.957031 Z M 183.671875 216.894531 C 182.949219 216.894531 182.3125 216.375 182.179688 215.640625 C 182.035156 214.816406 182.582031 214.027344 183.410156 213.878906 C 183.453125 213.871094 187.652344 213.109375 190.34375 211.308594 C 191.035156 210.835938 191.980469 211.023438 192.445312 211.722656 C 192.910156 212.421875 192.726562 213.367188 192.027344 213.832031 C 188.804688 215.996094 184.132812 216.835938 183.933594 216.871094 C 183.847656 216.890625 183.761719 216.894531 183.671875 216.894531 Z M 184.171875 224.679688 C 180.757812 224.679688 177.347656 223.625 177.183594 223.578125 C 176.382812 223.328125 175.9375 222.476562 176.1875 221.675781 C 176.4375 220.871094 177.28125 220.414062 178.085938 220.671875 C 178.125 220.6875 182.210938 221.949219 185.421875 221.574219 C 186.242188 221.476562 187.003906 222.078125 187.097656 222.910156 C 187.195312 223.742188 186.59375 224.496094 185.761719 224.59375 C 185.246094 224.652344 184.707031 224.679688 184.171875 224.679688 Z M 177.023438 230.90625 C 176.796875 230.90625 176.574219 230.855469 176.359375 230.75 C 172.871094 229.042969 169.804688 225.40625 169.675781 225.25 C 169.136719 224.609375 169.222656 223.652344 169.863281 223.113281 C 170.5 222.578125 171.453125 222.652344 172 223.300781 C 172.027344 223.332031 174.792969 226.597656 177.691406 228.019531 C 178.445312 228.390625 178.757812 229.300781 178.386719 230.054688 C 178.125 230.59375 177.582031 230.90625 177.023438 230.90625 Z M 166.539062 232.023438 C 166.082031 232.023438 165.628906 231.816406 165.332031 231.425781 C 162.980469 228.328125 161.863281 223.707031 161.816406 223.511719 C 161.625 222.695312 162.128906 221.878906 162.941406 221.679688 C 163.761719 221.496094 164.574219 221.988281 164.769531 222.804688 C 164.777344 222.847656 165.789062 227.003906 167.746094 229.582031 C 168.253906 230.25 168.125 231.199219 167.457031 231.710938 C 167.183594 231.925781 166.859375 232.023438 166.539062 232.023438 Z M 146.828125 212.230469 C 146.53125 212.230469 146.230469 212.144531 145.96875 211.960938 C 145.277344 211.484375 145.105469 210.535156 145.582031 209.84375 C 147.785156 206.644531 151.820312 204.140625 151.988281 204.035156 C 152.695312 203.589844 153.632812 203.820312 154.078125 204.535156 C 154.515625 205.25 154.292969 206.183594 153.578125 206.625 C 153.542969 206.652344 149.914062 208.90625 148.082031 211.574219 C 147.785156 212 147.3125 212.230469 146.828125 212.230469 Z M 147.792969 200.210938 C 147.265625 200.210938 146.75 199.933594 146.472656 199.4375 C 146.058594 198.707031 146.316406 197.777344 147.042969 197.363281 C 150.425781 195.449219 155.144531 194.96875 155.347656 194.945312 C 156.1875 194.886719 156.921875 195.476562 157.003906 196.3125 C 157.085938 197.144531 156.472656 197.890625 155.644531 197.976562 C 155.601562 197.976562 151.351562 198.417969 148.535156 200.011719 C 148.304688 200.148438 148.046875 200.210938 147.792969 200.210938 Z M 162.757812 190.765625 C 162.578125 190.765625 162.398438 190.730469 162.21875 190.664062 C 162.179688 190.648438 158.199219 189.148438 154.953125 189.3125 C 154.09375 189.324219 153.402344 188.707031 153.359375 187.871094 C 153.316406 187.03125 153.960938 186.316406 154.796875 186.273438 C 158.675781 186.09375 163.117188 187.75 163.300781 187.824219 C 164.085938 188.125 164.476562 189 164.179688 189.785156 C 163.945312 190.390625 163.367188 190.765625 162.757812 190.765625 Z M 173.132812 188.070312 C 172.699219 188.070312 172.265625 187.886719 171.96875 187.527344 C 171.941406 187.492188 169.1875 184.222656 166.285156 182.789062 C 165.535156 182.417969 165.226562 181.511719 165.597656 180.757812 C 165.96875 180.003906 166.878906 179.695312 167.628906 180.066406 C 171.109375 181.785156 174.167969 185.425781 174.296875 185.578125 C 174.835938 186.222656 174.746094 187.179688 174.105469 187.71875 C 173.820312 187.953125 173.476562 188.070312 173.132812 188.070312 Z M 185.789062 186.277344 C 185.355469 186.277344 184.925781 186.089844 184.628906 185.734375 C 184.601562 185.699219 181.847656 182.429688 178.945312 180.996094 C 178.191406 180.625 177.882812 179.71875 178.257812 178.964844 C 178.628906 178.210938 179.535156 177.90625 180.285156 178.273438 C 183.765625 179.992188 186.824219 183.628906 186.957031 183.78125 C 187.492188 184.425781 187.40625 185.382812 186.765625 185.921875 C 186.480469 186.160156 186.132812 186.277344 185.789062 186.277344 Z M 197.871094 182.582031 C 197.53125 182.582031 197.1875 182.472656 196.90625 182.238281 C 196.875 182.210938 193.5625 179.511719 190.449219 178.644531 C 189.640625 178.417969 189.167969 177.578125 189.390625 176.769531 C 189.617188 175.960938 190.4375 175.488281 191.261719 175.714844 C 195 176.757812 198.679688 179.761719 198.835938 179.890625 C 199.480469 180.421875 199.574219 181.378906 199.042969 182.027344 C 198.746094 182.394531 198.308594 182.582031 197.871094 182.582031 Z M 207.925781 176.675781 C 207.683594 176.675781 207.441406 176.621094 207.210938 176.496094 C 207.171875 176.472656 203.402344 174.464844 200.183594 174.214844 C 199.351562 174.152344 198.726562 173.417969 198.789062 172.582031 C 198.851562 171.742188 199.667969 171.117188 200.414062 171.183594 C 204.285156 171.480469 208.472656 173.722656 208.652344 173.820312 C 209.386719 174.21875 209.664062 175.140625 209.265625 175.878906 C 208.988281 176.386719 208.46875 176.675781 207.925781 176.675781 Z M 215.867188 170.164062 C 215.703125 170.164062 215.539062 170.136719 215.375 170.082031 C 215.332031 170.066406 211.234375 168.695312 208.066406 168.972656 C 207.230469 169.035156 206.496094 168.421875 206.425781 167.585938 C 206.355469 166.75 206.976562 166.015625 207.808594 165.941406 C 211.679688 165.613281 216.171875 167.136719 216.355469 167.203125 C 217.152344 167.476562 217.570312 168.339844 217.300781 169.136719 C 217.085938 169.769531 216.492188 170.164062 215.867188 170.164062 Z M 233.085938 152.34375 C 232.964844 152.34375 232.835938 152.332031 232.707031 152.296875 C 232.664062 152.289062 228.53125 151.234375 225.335938 151.761719 C 224.523438 151.90625 223.730469 151.339844 223.59375 150.507812 C 223.457031 149.679688 224.019531 148.898438 224.84375 148.761719 C 228.671875 148.132812 233.277344 149.300781 233.46875 149.351562 C 234.28125 149.5625 234.765625 150.386719 234.554688 151.203125 C 234.378906 151.890625 233.765625 152.34375 233.085938 152.34375 Z M 230.558594 145.074219 C 229.894531 145.074219 229.285156 144.632812 229.101562 143.960938 C 228.875 143.152344 229.347656 142.3125 230.152344 142.089844 C 233.894531 141.039062 238.589844 141.714844 238.796875 141.742188 C 239.625 141.863281 240.195312 142.632812 240.074219 143.460938 C 239.953125 144.289062 239.195312 144.875 238.359375 144.75 C 238.316406 144.742188 234.078125 144.148438 230.972656 145.011719 C 230.832031 145.058594 230.695312 145.074219 230.558594 145.074219 Z M 230.558594 145.074219 "/></g><g style="fill:rgb(18.818665%,21.569824%,24.708557%);fill-opacity:1;"><g transform="translate(97.39357, 203.249987)"><path style="stroke:none;" d="M 25.640625 -3.375 C 25.953125 -2.988281 26.109375 -2.53125 26.109375 -2 C 26.109375 -1.382812 25.878906 -0.882812 25.421875 -0.5 C 24.960938 -0.113281 24.441406 0.078125 23.859375 0.078125 C 23.296875 0.078125 22.804688 -0.171875 22.390625 -0.671875 L 12.265625 -13.71875 L 7.59375 -9.296875 L 7.59375 -2.046875 C 7.59375 -1.460938 7.394531 -0.972656 7 -0.578125 C 6.613281 -0.191406 6.113281 0 5.5 0 C 4.894531 0 4.40625 -0.191406 4.03125 -0.578125 C 3.65625 -0.972656 3.46875 -1.460938 3.46875 -2.046875 L 3.46875 -27.1875 C 3.46875 -27.75 3.660156 -28.222656 4.046875 -28.609375 C 4.429688 -28.992188 4.929688 -29.1875 5.546875 -29.1875 C 6.160156 -29.1875 6.65625 -29 7.03125 -28.625 C 7.40625 -28.25 7.59375 -27.769531 7.59375 -27.1875 L 7.59375 -14.21875 L 22.390625 -28.5625 C 22.921875 -29.039062 23.453125 -29.28125 23.984375 -29.28125 C 24.484375 -29.28125 24.910156 -29.070312 25.265625 -28.65625 C 25.628906 -28.238281 25.8125 -27.789062 25.8125 -27.3125 C 25.8125 -26.894531 25.617188 -26.460938 25.234375 -26.015625 L 15.34375 -16.6875 Z M 25.640625 -3.375 "/></g></g><g style="fill:rgb(18.818665%,21.569824%,24.708557%);fill-opacity:1;"><g transform="translate(126.580451, 203.249987)"><path style="stroke:none;" d="M 25.265625 -29.1875 C 25.796875 -29.1875 26.226562 -29.015625 26.5625 -28.671875 C 26.894531 -28.328125 27.0625 -27.890625 27.0625 -27.359375 L 27.0625 -2.046875 C 27.0625 -1.460938 26.875 -0.972656 26.5 -0.578125 C 26.125 -0.191406 25.644531 0 25.0625 0 C 24.757812 0 24.460938 -0.046875 24.171875 -0.140625 C 23.878906 -0.242188 23.648438 -0.390625 23.484375 -0.578125 L 7.09375 -21.9375 L 7.09375 -1.828125 C 7.09375 -1.304688 6.914062 -0.867188 6.5625 -0.515625 C 6.21875 -0.171875 5.78125 0 5.25 0 C 4.726562 0 4.300781 -0.171875 3.96875 -0.515625 C 3.632812 -0.867188 3.46875 -1.304688 3.46875 -1.828125 L 3.46875 -27.1875 C 3.46875 -27.769531 3.65625 -28.25 4.03125 -28.625 C 4.40625 -29 4.867188 -29.1875 5.421875 -29.1875 C 5.753906 -29.1875 6.070312 -29.125 6.375 -29 C 6.6875 -28.875 6.925781 -28.703125 7.09375 -28.484375 L 23.4375 -7.09375 L 23.4375 -27.359375 C 23.4375 -27.890625 23.609375 -28.328125 23.953125 -28.671875 C 24.304688 -29.015625 24.742188 -29.1875 25.265625 -29.1875 Z M 25.265625 -29.1875 "/></g></g><g style="fill:rgb(18.818665%,21.569824%,24.708557%);fill-opacity:1;"><g transform="translate(158.644308, 203.249987)"><path style="stroke:none;" d="M 29.984375 -14.59375 C 29.984375 -11.789062 29.378906 -9.25 28.171875 -6.96875 C 26.960938 -4.6875 25.285156 -2.882812 23.140625 -1.5625 C 21.003906 -0.238281 18.585938 0.421875 15.890625 0.421875 C 13.191406 0.421875 10.769531 -0.238281 8.625 -1.5625 C 6.488281 -2.882812 4.816406 -4.6875 3.609375 -6.96875 C 2.398438 -9.25 1.796875 -11.789062 1.796875 -14.59375 C 1.796875 -17.40625 2.398438 -19.945312 3.609375 -22.21875 C 4.816406 -24.5 6.488281 -26.300781 8.625 -27.625 C 10.769531 -28.945312 13.191406 -29.609375 15.890625 -29.609375 C 18.585938 -29.609375 21.003906 -28.945312 23.140625 -27.625 C 25.285156 -26.300781 26.960938 -24.5 28.171875 -22.21875 C 29.378906 -19.945312 29.984375 -17.40625 29.984375 -14.59375 Z M 25.6875 -14.59375 C 25.6875 -16.675781 25.269531 -18.554688 24.4375 -20.234375 C 23.601562 -21.921875 22.441406 -23.242188 20.953125 -24.203125 C 19.460938 -25.160156 17.773438 -25.640625 15.890625 -25.640625 C 13.992188 -25.640625 12.300781 -25.164062 10.8125 -24.21875 C 9.332031 -23.28125 8.175781 -21.96875 7.34375 -20.28125 C 6.507812 -18.601562 6.09375 -16.707031 6.09375 -14.59375 C 6.09375 -12.507812 6.507812 -10.625 7.34375 -8.9375 C 8.175781 -7.257812 9.332031 -5.941406 10.8125 -4.984375 C 12.300781 -4.023438 13.992188 -3.546875 15.890625 -3.546875 C 17.773438 -3.546875 19.460938 -4.023438 20.953125 -4.984375 C 22.441406 -5.941406 23.601562 -7.257812 24.4375 -8.9375 C 25.269531 -10.625 25.6875 -12.507812 25.6875 -14.59375 Z M 25.6875 -14.59375 "/></g></g><g style="fill:rgb(18.818665%,21.569824%,24.708557%);fill-opacity:1;"><g transform="translate(191.959024, 203.249987)"><path style="stroke:none;" d="M 22.390625 -29.1875 C 22.972656 -29.1875 23.453125 -29.015625 23.828125 -28.671875 C 24.203125 -28.328125 24.390625 -27.863281 24.390625 -27.28125 C 24.390625 -26.6875 24.203125 -26.222656 23.828125 -25.890625 C 23.453125 -25.554688 22.972656 -25.390625 22.390625 -25.390625 L 14.96875 -25.390625 L 14.96875 -2 C 14.96875 -1.445312 14.765625 -0.972656 14.359375 -0.578125 C 13.960938 -0.191406 13.457031 0 12.84375 0 C 12.226562 0 11.71875 -0.191406 11.3125 -0.578125 C 10.914062 -0.972656 10.71875 -1.445312 10.71875 -2 L 10.71875 -25.390625 L 3.34375 -25.390625 C 2.75 -25.390625 2.265625 -25.5625 1.890625 -25.90625 C 1.515625 -26.257812 1.328125 -26.726562 1.328125 -27.3125 C 1.328125 -27.875 1.515625 -28.328125 1.890625 -28.671875 C 2.265625 -29.015625 2.75 -29.1875 3.34375 -29.1875 Z M 22.390625 -29.1875 "/></g></g><g style="fill:rgb(18.818665%,21.569824%,24.708557%);fill-opacity:1;"><g transform="translate(219.227924, 203.249987)"><path style="stroke:none;" d="M 19.96875 -3.84375 C 20.5625 -3.84375 21.046875 -3.644531 21.421875 -3.25 C 21.796875 -2.863281 21.984375 -2.40625 21.984375 -1.875 C 21.984375 -1.320312 21.796875 -0.867188 21.421875 -0.515625 C 21.046875 -0.171875 20.5625 0 19.96875 0 L 5.46875 0 C 4.90625 0 4.429688 -0.191406 4.046875 -0.578125 C 3.660156 -0.972656 3.46875 -1.445312 3.46875 -2 L 3.46875 -27.1875 C 3.46875 -27.75 3.660156 -28.222656 4.046875 -28.609375 C 4.429688 -28.992188 4.90625 -29.1875 5.46875 -29.1875 L 19.96875 -29.1875 C 20.5625 -29.1875 21.046875 -29.003906 21.421875 -28.640625 C 21.796875 -28.285156 21.984375 -27.816406 21.984375 -27.234375 C 21.984375 -26.671875 21.796875 -26.21875 21.421875 -25.875 C 21.046875 -25.53125 20.5625 -25.359375 19.96875 -25.359375 L 7.59375 -25.359375 L 7.59375 -16.84375 L 18.09375 -16.84375 C 18.675781 -16.84375 19.15625 -16.660156 19.53125 -16.296875 C 19.90625 -15.941406 20.09375 -15.488281 20.09375 -14.9375 C 20.09375 -14.34375 19.90625 -13.878906 19.53125 -13.546875 C 19.15625 -13.210938 18.675781 -13.046875 18.09375 -13.046875 L 7.59375 -13.046875 L 7.59375 -3.84375 Z M 19.96875 -3.84375 "/></g></g><g style="fill:rgb(18.818665%,21.569824%,24.708557%);fill-opacity:1;"><g transform="translate(244.537149, 203.249987)"><path style="stroke:none;" d="M 25.265625 -29.1875 C 25.796875 -29.1875 26.226562 -29.015625 26.5625 -28.671875 C 26.894531 -28.328125 27.0625 -27.890625 27.0625 -27.359375 L 27.0625 -2.046875 C 27.0625 -1.460938 26.875 -0.972656 26.5 -0.578125 C 26.125 -0.191406 25.644531 0 25.0625 0 C 24.757812 0 24.460938 -0.046875 24.171875 -0.140625 C 23.878906 -0.242188 23.648438 -0.390625 23.484375 -0.578125 L 7.09375 -21.9375 L 7.09375 -1.828125 C 7.09375 -1.304688 6.914062 -0.867188 6.5625 -0.515625 C 6.21875 -0.171875 5.78125 0 5.25 0 C 4.726562 0 4.300781 -0.171875 3.96875 -0.515625 C 3.632812 -0.867188 3.46875 -1.304688 3.46875 -1.828125 L 3.46875 -27.1875 C 3.46875 -27.769531 3.65625 -28.25 4.03125 -28.625 C 4.40625 -29 4.867188 -29.1875 5.421875 -29.1875 C 5.753906 -29.1875 6.070312 -29.125 6.375 -29 C 6.6875 -28.875 6.925781 -28.703125 7.09375 -28.484375 L 23.4375 -7.09375 L 23.4375 -27.359375 C 23.4375 -27.890625 23.609375 -28.328125 23.953125 -28.671875 C 24.304688 -29.015625 24.742188 -29.1875 25.265625 -29.1875 Z M 25.265625 -29.1875 "/></g></g></g></svg>